<?xml version="1.0" encoding="utf-8"?>
<!-- Generator: Adobe Illustrator 16.0.0, SVG Export Plug-In . SVG Version: 6.00 Build 0)  -->
<!DOCTYPE svg PUBLIC "-//W3C//DTD SVG 1.1//EN" "http://www.w3.org/Graphics/SVG/1.1/DTD/svg11.dtd">
<svg version="1.1" id="Layer_1" xmlns="http://www.w3.org/2000/svg" xmlns:xlink="http://www.w3.org/1999/xlink" x="0px" y="0px"
	 width="50px" height="50px" viewBox="0 0 50 50" enable-background="new 0 0 50 50" xml:space="preserve">
<g>
	<path fill="#FFFFFF" d="M41.953,13.674l-5.628-5.627L28.979,5h-7.96l-0.229,0.097l-7.116,2.95l-5.627,5.627L5,21.019v7.96
		l3.047,7.346l5.627,5.628L21.019,45h7.96l7.346-3.047l5.628-5.628L45,28.979v-7.96L41.953,13.674z M34.415,31.287
		c-0.819,1.242-1.886,2.309-3.128,3.128c-1.214,0.818-2.597,1.4-4.076,1.69c-0.713,0.149-1.454,0.22-2.211,0.22
		s-1.497-0.07-2.21-0.22c-1.48-0.29-2.862-0.872-4.078-1.69c-1.242-0.819-2.307-1.886-3.126-3.128
		c-0.819-1.214-1.4-2.597-1.691-4.076c-0.149-0.713-0.22-1.454-0.22-2.211s0.071-1.497,0.22-2.21
		c0.291-1.48,0.872-2.862,1.691-4.078c0.819-1.242,1.885-2.307,3.126-3.126c1.18-0.792,2.51-1.365,3.945-1.665
		c0.758-0.158,1.541-0.247,2.343-0.247c0.757,0,1.498,0.071,2.211,0.22c1.479,0.291,2.862,0.872,4.076,1.691
		c1.242,0.819,2.309,1.885,3.128,3.126c0.818,1.216,1.4,2.598,1.69,4.078c0.149,0.713,0.22,1.453,0.22,2.21s-0.07,1.498-0.22,2.211
		C35.815,28.69,35.233,30.073,34.415,31.287z"/>
	<path fill="#212F3D" d="M22.657,13.921c-1.435,0.3-2.765,0.872-3.945,1.665l-5.038-7.539l7.116-2.95L22.657,13.921z"/>
	<path fill="#2F4053" d="M28.979,5l-1.769,8.895c-0.713-0.149-1.454-0.22-2.211-0.22c-0.802,0-1.585,0.088-2.343,0.247l-1.867-8.824
		L28.979,5z"/>
	<path fill="#576674" d="M36.325,8.047l-5.038,7.539c-1.214-0.819-2.597-1.4-4.076-1.691L28.979,5L36.325,8.047z"/>
	<path fill="#808B96" d="M41.953,13.674l-7.538,5.038c-0.819-1.242-1.886-2.307-3.128-3.126l5.038-7.539L41.953,13.674z"/>
	<path fill="#ABB2B9" d="M45,21.019l-8.895,1.771c-0.29-1.48-0.872-2.862-1.69-4.078l7.538-5.038L45,21.019z"/>
	<path fill="#D5D8DC" d="M45,21.019v7.96l-8.895-1.769c0.149-0.713,0.22-1.454,0.22-2.211s-0.07-1.497-0.22-2.21L45,21.019z"/>
	<path fill="#EAECED" d="M45,28.979l-3.047,7.346l-7.538-5.038c0.818-1.214,1.4-2.597,1.69-4.076L45,28.979z"/>
	<path fill="#EBEDEE" d="M41.953,36.325l-5.628,5.628l-5.038-7.538c1.242-0.819,2.309-1.886,3.128-3.128L41.953,36.325z"/>
	<path fill="#D6DBDF" d="M36.325,41.953L28.979,45l-1.769-8.895c1.479-0.29,2.862-0.872,4.076-1.69L36.325,41.953z"/>
	<path fill="#AEB6BF" d="M28.979,45h-7.96l1.771-8.895c0.713,0.149,1.453,0.22,2.21,0.22s1.498-0.07,2.211-0.22L28.979,45z"/>
	<path fill="#85929E" d="M22.79,36.105L21.019,45l-7.345-3.047l5.038-7.538C19.928,35.233,21.31,35.815,22.79,36.105z"/>
	<path fill="#5D6D7E" d="M18.712,34.415l-5.038,7.538l-5.627-5.628l7.539-5.038C16.405,32.529,17.47,33.596,18.712,34.415z"/>
	<path fill="#35495E" d="M15.585,31.287l-7.539,5.038L5,28.979l8.895-1.769C14.186,28.69,14.767,30.073,15.585,31.287z"/>
	<path fill="#17202A" d="M13.674,25c0,0.757,0.071,1.498,0.22,2.211L5,28.979v-7.96l8.895,1.771
		C13.745,23.503,13.674,24.243,13.674,25z"/>
	<path fill="#1C2833" d="M15.585,18.712c-0.819,1.216-1.4,2.598-1.691,4.078L5,21.019l3.047-7.345L15.585,18.712z"/>
	<path fill="#212F3C" d="M18.712,15.585c-1.242,0.819-2.307,1.885-3.126,3.126l-7.539-5.038l5.627-5.627L18.712,15.585z"/>
	<path fill="#488FCC" d="M29.809,25.458c0,2.721-2.202,4.923-4.923,4.923s-4.923-2.202-4.923-4.923c0-1.391,0.573-2.642,1.506-3.531
		l-0.009-0.009l3.153-3.153c0.071-0.071,0.167-0.105,0.273-0.105c0.106,0,0.203,0.035,0.273,0.105l0.044,0.044l3.109,3.108
		l-0.009,0.009C29.235,22.815,29.809,24.067,29.809,25.458z"/>
	<path opacity="0.5" fill="none" stroke="#D6DBDF" stroke-linecap="round" stroke-miterlimit="10" d="M29.065,25.121
		c0,2.214-1.417,3.827-3.014,4.199"/>
	<circle opacity="0.5" fill="#D6DBDF" cx="24.896" cy="29.485" r="0.413"/>
</g>
</svg>
